<?xml version="1.0" encoding="UTF-8"?>
<svg id="Camada_1" data-name="Camada 1" xmlns="http://www.w3.org/2000/svg" viewBox="0 0 529.35 122.46">
  <defs>
    <style>
      .cls-1 {
        fill: #fff;
      }

      .cls-2 {
        fill: #3aaa35;
      }
    </style>
  </defs>
  <path class="cls-1" d="m472.17,31.65c-35.23-16.48-74.51-23.51-113.24-19.91,0,0,2.01-1.4,2.01-1.4-1.85,2.53-3.63,5.35-5.22,8.1-10.17,17.53-15.44,37.81-15.64,58.03,0,1.56.12,5.54.13,7.15,0,0-5.71-4.81-5.71-4.81,14.13-3.42,28.74-3.77,43.17-2.45,24.36,2.13,48.35,12.39,65.15,30.41,0,0-9.7,3.41-9.7,3.41.14-.74.26-1.3.4-1.93,1.98-8.85,5.04-17.47,8.72-25.73,3.95-8.7,8.72-17.03,14.52-24.6,0,0,1.13.64,1.13.64-.78,2.23-1.65,4.4-2.41,6.6-6.49,18.35-11.07,37.78-11.62,57.29-2.88-2.35-10.09-8.28-12.8-10.5-1.85-1.38-4.64-3.45-6.6-4.69-18.31-11.9-39.87-17.91-61.62-19.46-10.87-.73-22.05-.18-32.88.94.54-3.77,1.17-9.27,1.7-13.01.31-1.54,1.15-5.9,1.48-7.51.72-2.86,1.69-7.02,2.57-9.79,5.18-17.67,12.02-34.74,19.93-51.38,0,0,.49-.97.49-.97,5.42-1.53,10.86-3.07,16.46-4.08,25.34-5.17,52.17.15,75.15,11.42,6.86,3.43,13.43,7.4,19.45,12.16,2.01,1.57,3.94,3.22,5.76,5.04,0,0-.77,1.05-.77,1.05h0Z"/>
  <path class="cls-2" d="m367.3,29.24c10.24,7.85,19.76,17.64,23.92,30.19,0,0-3.69-1.97-3.69-1.97,11.27-4.57,22.7-8.28,34.34-11.49,34.14-9.1,72.68-15.19,107.49-6.75-35.69-.95-70.98,5.96-105.54,14.25-12.56,3.09-25.12,6.45-37.44,10.2-2.15-13.21-10.67-24.35-19.07-34.42h0Z"/>
  <g>
    <path class="cls-1" d="m2.45,75.52c-.24-3.95-.52-7.12-.83-9.49,2.08.93,3.94,1.57,5.56,1.93,1.63.36,3.05.54,4.28.54,1.62,0,2.9-.24,3.86-.71.96-.47,1.44-1.17,1.44-2.1,0-.32-.05-.62-.14-.9-.09-.29-.27-.61-.53-.97-.26-.36-.63-.76-1.12-1.18l-5.24-4.56c-1.23-1.04-2.08-1.79-2.57-2.25-.99-.95-1.75-1.83-2.3-2.64-.55-.82-.95-1.65-1.2-2.49-.25-.84-.38-1.74-.38-2.69,0-1.13.2-2.24.6-3.33.4-1.08,1-2.1,1.79-3.05.8-.95,1.85-1.76,3.17-2.45,1.32-.69,2.73-1.15,4.23-1.41,1.5-.25,3.05-.38,4.65-.38,3.14,0,6.55.36,10.24,1.09.06,1.28.12,2.45.19,3.52.07,1.07.25,2.94.53,5.61-1.71-.69-3.27-1.16-4.68-1.43-1.41-.27-2.63-.4-3.65-.4-1.45,0-2.65.27-3.6.81-.96.54-1.43,1.21-1.43,2,0,.37.07.73.22,1.09.15.35.43.77.83,1.24.41.47.95.99,1.61,1.56.67.57,1.72,1.41,3.15,2.52l2,1.59c.59.48,1.23,1.07,1.92,1.75.69.69,1.28,1.36,1.78,2.03s.89,1.28,1.15,1.84.47,1.12.6,1.68c.13.57.19,1.17.19,1.82,0,1.67-.4,3.26-1.2,4.77-.8,1.51-1.93,2.75-3.4,3.73-1.47.97-3.08,1.66-4.83,2.05-1.75.39-3.6.58-5.55.58-3.01,0-6.8-.44-11.38-1.31Z"/>
    <path class="cls-1" d="m35.97,38.11c2.89.04,4.93.06,6.12.06,1.48,0,3.46-.02,5.93-.06l-.83,11.83c-.17,2.23-.29,4.31-.37,6.26s-.12,3.29-.12,4.04c0,1.41.1,2.59.31,3.53.2.95.58,1.75,1.11,2.41.54.66,1.28,1.15,2.24,1.49s1.95.5,2.99.5c.89,0,1.72-.12,2.5-.36.61-.2,1.16-.48,1.64-.83.43-.33.8-.72,1.11-1.16.39-.53.73-1.19,1.03-1.99.3-.75.52-1.72.67-2.92.17-1.21.39-3.98.67-8.29.24-3.67.43-7.03.56-10.07.11-2.96.21-4.44.31-4.44h12.27l-1.35,19.76c-.02.37-.03.68-.03.92-.07,3.86-.31,6.58-.71,8.17-.4,1.59-1.06,2.96-1.99,4.13-.93,1.17-2.28,2.22-4.06,3.16s-3.8,1.6-6.07,1.99c-2.26.39-4.56.58-6.88.58-2.08,0-4.08-.15-6.01-.45-1.78-.3-3.39-.73-4.82-1.29-1.43-.57-2.67-1.23-3.73-1.99-.97-.71-1.71-1.42-2.23-2.16-.52-.73-.93-1.61-1.23-2.63-.33-1.15-.5-2.38-.5-3.7,0-.45.02-1.12.06-2.02.04-.9.12-2.19.25-3.88l.36-4.45c.09-1.17.2-2.88.31-5.15l.5-10.99Z"/>
    <path class="cls-1" d="m73.62,76.1l2.31-4.01,14.4-27.11,1.53-3.03c.45-.89,1.07-2.17,1.87-3.84,3.27.04,5.65.06,7.15.06,2.62,0,5.04-.02,7.26-.06l4.06,11.61,8.26,22.32,1.61,4.06c-3.21-.04-5.16-.06-5.85-.06-1.56,0-3.85.02-6.88.06-.81-3.06-1.99-6.66-3.53-10.8h-14.01c-1.61,3.27-3.28,6.87-5.01,10.8-3.46-.04-5.57-.06-6.35-.06-1.41,0-3.69.02-6.83.06Zm21.55-18.9h8.65c-2.15-6.54-3.33-10.14-3.53-10.81-1.22,2.72-2.26,4.96-3.11,6.7l-2,4.11Z"/>
    <path class="cls-1" d="m138.97,76.1c.47-4.38.8-7.95,1.01-10.72.39-5.05.69-10.06.88-15.04.2-4.98.29-9.06.29-12.23,2.52.04,4.76.06,6.7.06,1.32,0,3.21-.02,5.67-.06l-.67,10.08-.84,15.75-.11,3.87c3.19.06,5.27.08,6.24.08,4.88,0,8.58-.06,11.08-.19l-.61,8.41c-4.88-.04-9.53-.06-13.94-.06-5.97,0-11.21.02-15.7.06Z"/>
    <path class="cls-1" d="m172.75,76.1c1.07-14.9,1.6-26.37,1.6-34.4l-.03-3.59c3.25.04,5.42.06,6.52.06.5,0,2.5-.02,5.99-.06-.34,4.17-.61,8.13-.81,11.86-.26,5.2-.45,10.05-.56,14.57-.11,4.52-.17,8.37-.17,11.56l-5.7-.06c-1.11,0-3.39.02-6.84.06Z"/>
    <path class="cls-1" d="m191.79,75.52c-.24-3.95-.52-7.12-.83-9.49,2.08.93,3.94,1.57,5.56,1.93,1.63.36,3.05.54,4.28.54,1.62,0,2.9-.24,3.86-.71.96-.47,1.44-1.17,1.44-2.1,0-.32-.05-.62-.14-.9-.09-.29-.27-.61-.53-.97-.26-.36-.63-.76-1.12-1.18l-5.24-4.56c-1.23-1.04-2.08-1.79-2.57-2.25-.99-.95-1.75-1.83-2.3-2.64-.55-.82-.95-1.65-1.2-2.49-.25-.84-.38-1.74-.38-2.69,0-1.13.2-2.24.6-3.33.4-1.08,1-2.1,1.79-3.05.8-.95,1.85-1.76,3.17-2.45,1.32-.69,2.73-1.15,4.23-1.41,1.5-.25,3.05-.38,4.65-.38,3.14,0,6.55.36,10.24,1.09.06,1.28.12,2.45.19,3.52.07,1.07.25,2.94.53,5.61-1.71-.69-3.27-1.16-4.68-1.43-1.41-.27-2.63-.4-3.65-.4-1.45,0-2.65.27-3.6.81-.96.54-1.43,1.21-1.43,2,0,.37.07.73.22,1.09.15.35.43.77.83,1.24.41.47.95.99,1.61,1.56.67.57,1.72,1.41,3.15,2.52l2,1.59c.59.48,1.23,1.07,1.92,1.75.69.69,1.28,1.36,1.78,2.03s.89,1.28,1.15,1.84.47,1.12.6,1.68c.13.57.19,1.17.19,1.82,0,1.67-.4,3.26-1.2,4.77-.8,1.51-1.93,2.75-3.4,3.73-1.47.97-3.08,1.66-4.83,2.05-1.75.39-3.6.58-5.55.58-3.01,0-6.8-.44-11.38-1.31Z"/>
    <path class="cls-1" d="m232.09,76.1c.92-9.02,1.47-18.94,1.66-29.78l-11.85.31.14-3.09c.07-1.65.13-3.46.17-5.43,5.27.04,11.41.06,18.42.06l6.87-.03h6.68l3.62-.03-.17,2.73c-.07,1.46-.12,2.67-.15,3.63-.03.96-.04,1.68-.04,2.16-3.97-.2-7.24-.31-9.82-.31h-1.95c-.28,3.28-.5,6.31-.64,9.08-.21,3.98-.36,7.85-.48,11.6s-.17,6.78-.17,9.1c-3.04-.04-5.01-.06-5.9-.06-.8,0-2.93.02-6.4.06Z"/>
    <path class="cls-1" d="m254.83,76.1l2.31-4.01,14.4-27.11,1.53-3.03c.45-.89,1.07-2.17,1.87-3.84,3.27.04,5.65.06,7.15.06,2.62,0,5.04-.02,7.26-.06l4.06,11.61,8.26,22.32,1.61,4.06c-3.21-.04-5.16-.06-5.85-.06-1.56,0-3.86.02-6.88.06-.81-3.06-1.99-6.66-3.53-10.8h-14.01c-1.61,3.27-3.28,6.87-5.01,10.8-3.46-.04-5.57-.06-6.35-.06-1.41,0-3.69.02-6.83.06Zm21.55-18.9h8.64c-2.15-6.54-3.32-10.14-3.53-10.81-1.22,2.72-2.26,4.96-3.11,6.7l-2,4.11Z"/>
  </g>
</svg>